HIERARCHY
ROOT Hips
{
 OFFSET 0.000000 0.000000 0.000000
 CHANNELS 6 Xposition Yposition Zposition Yrotation Xrotation Zrotation
 JOINT Chest
 {
  OFFSET 0.000000 9.585900 0.002600
  CHANNELS 3 Yrotation Xrotation Zrotation
  JOINT Chest2
  {
   OFFSET 0.000000 9.601200 -0.005300
   CHANNELS 3 Yrotation Xrotation Zrotation
   JOINT Chest3
   {
    OFFSET 0.000000 9.561800 0.000000
    CHANNELS 3 Yrotation Xrotation Zrotation
    JOINT Chest4
    {
     OFFSET 0.000000 9.552100 0.000000
     CHANNELS 3 Yrotation Xrotation Zrotation
     JOINT Neck
     {
      OFFSET 0.000000 14.453000 0.000000
      CHANNELS 3 Yrotation Xrotation Zrotation
      JOINT Head
      {
       OFFSET 0.000000 8.936500 -0.011300
       CHANNELS 3 Yrotation Xrotation Zrotation
       End Site
       {
        OFFSET 0.000000 17.073600 -0.006000
       }
      }
     }
     JOINT RightCollar
     {
      OFFSET -2.921100 9.558500 0.000000
      CHANNELS 3 Yrotation Xrotation Zrotation
      JOINT RightShoulder
      {
       OFFSET -13.519700 0.000000 0.000000
       CHANNELS 3 Yrotation Xrotation Zrotation
       JOINT RightElbow
       {
        OFFSET 0.000000 -29.696600 0.000000
        CHANNELS 3 Yrotation Xrotation Zrotation
        JOINT RightWrist
        {
         OFFSET 0.000000 -24.004700 0.000000
         CHANNELS 3 Yrotation Xrotation Zrotation
         End Site
         {
          OFFSET 0.000000 -17.728500 0.000000
         }
        }
       }
      }
     }
     JOINT LeftCollar
     {
      OFFSET 2.921100 9.558500 0.000000
      CHANNELS 3 Yrotation Xrotation Zrotation
      JOINT LeftShoulder
      {
       OFFSET 13.519700 0.000000 0.000000
       CHANNELS 3 Yrotation Xrotation Zrotation
       JOINT LeftElbow
       {
        OFFSET 0.000000 -29.696600 0.000000
        CHANNELS 3 Yrotation Xrotation Zrotation
        JOINT LeftWrist
        {
         OFFSET 0.000000 -24.004700 0.000000
         CHANNELS 3 Yrotation Xrotation Zrotation
         End Site
         {
          OFFSET 0.000000 -17.728500 0.000000
         }
        }
       }
      }
     }
    }
   }
  }
 }
 JOINT RightHip
 {
  OFFSET -7.771700 -0.012900 -0.001300
  CHANNELS 3 Yrotation Xrotation Zrotation
  JOINT RightKnee
  {
   OFFSET 0.000000 -40.869800 0.001200
   CHANNELS 3 Yrotation Xrotation Zrotation
   JOINT RightAnkle
   {
    OFFSET 0.000000 -39.717900 0.002100
    CHANNELS 3 Yrotation Xrotation Zrotation
    JOINT RightToe
    {
     OFFSET 0.000000 -4.965400 11.033500
     CHANNELS 3 Yrotation Xrotation Zrotation
     End Site
     {
      OFFSET 0.000000 -1.423100 5.872300
     }
    }
   }
  }
 }
 JOINT LeftHip
 {
  OFFSET 7.771700 -0.012900 -0.001300
  CHANNELS 3 Yrotation Xrotation Zrotation
  JOINT LeftKnee
  {
   OFFSET 0.000000 -40.869800 0.001200
   CHANNELS 3 Yrotation Xrotation Zrotation
   JOINT LeftAnkle
   {
    OFFSET 0.000000 -39.717900 0.002100
    CHANNELS 3 Yrotation Xrotation Zrotation
    JOINT LeftToe
    {
     OFFSET 0.000000 -4.965400 11.033500
     CHANNELS 3 Yrotation Xrotation Zrotation
     End Site
     {
      OFFSET 0.000000 -1.423100 5.872300
     }
    }
   }
  }
 }
}
MOTION
Frames: 15
Frame Time: 0.008333
0.000000 85.388000 0.000000 0.000000 -5.767877 0.000000 0.000000 11.653817 0.000000 0.000000 -5.885947 0.000000 0.000000 -0.000000 0.000000 0.000000 -0.000000 0.000000 0.000000 12.528835 0.000000 0.000000 0.711642 0.000000 0.000000 -0.000000 0.000000 0.000000 0.000000 -90.000000 0.000000 -2.309062 0.000000 0.000000 2.309062 0.000000 0.000000 -0.000000 0.000000 0.000000 -0.000000 90.000000 0.000000 -2.309062 0.000000 0.000000 2.309062 0.000000 0.000000 8.520406 0.000000 0.000000 1.905762 0.000000 -0.000000 -4.658285 0.000000 0.000000 -0.000000 0.000000 0.000000 8.520406 0.000000 0.000000 1.905762 0.000000 -0.000000 -4.658285 0.000000 0.000000 -0.000000 0.000000
-71.014304 48.983785 18.273384 177.730464 -31.833943 -3.359416 -0.511838 20.463743 2.424478 -0.113711 2.615682 0.297111 -0.169909 4.295718 0.486761 -0.479628 17.560966 1.957165 4.788686 14.988951 -2.092317 9.727631 -7.647827 -5.681433 -1.049598 -3.213003 -5.178923 6.845766 -9.152196 -12.668675 -39.981009 -49.268884 88.666664 2.009874 -0.042124 -15.365330 -0.058820 -3.053245 3.169089 -9.446907 -4.122043 12.847983 73.942154 -71.906188 -109.881366 4.447076 7.589782 8.335424 0.682789 -53.154144 -11.495391 -179.705862 82.345605 -168.528689 -25.587326 -2.895606 -2.505508 -0.235498 -10.793877 1.492217 -12.346317 -54.861759 17.279803 -72.817100 65.428663 -78.259575 30.731377 6.661138 16.461479 0.024077 -0.184651 0.012721
-71.016969 48.983372 18.274469 177.729890 -31.836759 -3.355980 -0.519378 20.457501 2.416632 -0.108978 2.622408 0.298678 -0.171300 4.292527 0.486602 -0.479842 17.550153 1.960196 4.781831 14.982135 -2.070501 9.710219 -7.643894 -5.640862 -1.046795 -3.206909 -5.178350 6.837721 -9.132811 -12.650599 -39.969470 -49.265330 88.654642 2.016551 -0.040478 -15.372896 -0.058014 -3.042452 3.167025 -9.450616 -4.117230 12.853319 73.935947 -71.899908 -109.873648 4.438082 7.596541 8.330142 0.706310 -53.153799 -11.501539 -179.611140 82.352339 -168.422582 -25.686862 -2.887126 -2.478851 -0.173500 -10.795980 1.473183 -12.340226 -54.859203 17.270357 -72.804712 65.430476 -78.248812 30.733199 6.661894 16.467246 0.019920 -0.184611 0.009866
-71.018058 48.983511 18.274979 177.728981 -31.845194 -3.364193 -0.519089 20.454819 2.420262 -0.108722 2.622245 0.299194 -0.170804 4.292268 0.487665 -0.477068 17.552350 1.964575 4.780644 14.981993 -2.058462 9.700210 -7.641434 -5.619221 -1.048833 -3.205501 -5.176792 6.821189 -9.118376 -12.631335 -39.947802 -49.265801 88.643796 2.004609 -0.041265 -15.390374 -0.060758 -3.040028 3.166851 -9.447036 -4.110204 12.858883 73.900137 -71.898776 -109.855416 4.442724 7.591584 8.341925 0.723483 -53.145335 -11.488227 -179.608410 82.359498 -168.414653 -25.763826 -2.875271 -2.451082 -0.143410 -10.797383 1.462731 -12.348438 -54.847705 17.279496 -72.800110 65.427798 -78.239419 30.733942 6.662223 16.462729 0.020477 -0.182541 0.010196
-71.019741 48.983915 18.274906 177.724538 -31.857358 -3.369220 -0.512874 20.445374 2.432050 -0.110096 2.631212 0.296918 -0.171052 4.292073 0.487825 -0.477021 17.561751 1.962716 4.780955 14.977237 -2.045287 9.688742 -7.637715 -5.597780 -1.053038 -3.208960 -5.170583 6.812208 -9.100992 -12.604288 -39.923296 -49.279085 88.623218 1.994554 -0.040527 -15.415940 -0.066317 -3.050907 3.167189 -9.438611 -4.093727 12.859212 73.880060 -71.901215 -109.848985 4.437480 7.594166 8.347243 0.726024 -53.134393 -11.470449 -179.729534 82.363112 -168.547230 -25.784408 -2.867451 -2.434507 -0.143131 -10.797060 1.461095 -12.350532 -54.833901 17.286231 -72.809827 65.427315 -78.243233 30.724292 6.657176 16.450645 0.030022 -0.176258 0.014465
-71.021670 48.984153 18.274882 177.722201 -31.867797 -3.376133 -0.508046 20.445839 2.440810 -0.107398 2.632163 0.300193 -0.170654 4.292094 0.488421 -0.475060 17.561801 1.965317 4.771776 14.979002 -2.036477 9.676728 -7.630463 -5.575903 -1.060700 -3.209860 -5.172531 6.812605 -9.090445 -12.597899 -39.919946 -49.269537 88.619405 1.986046 -0.038662 -15.434730 -0.081860 -3.055561 3.166850 -9.421466 -4.077224 12.854284 73.828740 -71.902454 -109.801444 4.429564 7.589230 8.336532 0.732083 -53.121382 -11.462352 -179.719175 82.365392 -168.535486 -25.791360 -2.869517 -2.430059 -0.140045 -10.790887 1.463960 -12.357422 -54.823618 17.298961 -72.822491 65.423494 -78.254702 30.713362 6.654828 16.447892 0.041595 -0.173578 0.013354
-71.024610 48.983952 18.275180 177.718897 -31.873828 -3.378686 -0.505039 20.440388 2.444296 -0.107461 2.633814 0.300581 -0.170361 4.291329 0.488772 -0.474633 17.553122 1.968954 4.765918 14.991370 -2.026254 9.664379 -7.619206 -5.553241 -1.078423 -3.200673 -5.165365 6.828576 -9.081052 -12.598733 -39.913388 -49.261852 88.615178 1.963404 -0.041153 -15.455320 -0.090658 -3.047725 3.171238 -9.403481 -4.065058 12.844549 73.782468 -71.902492 -109.764883 4.422317 7.589375 8.330432 0.747673 -53.116401 -11.458423 -179.683288 82.366037 -168.503136 -25.800174 -2.862001 -2.420549 -0.147145 -10.789355 1.468941 -12.355378 -54.820214 17.298251 -72.831872 65.426344 -78.260736 30.708953 6.655183 16.449281 0.043782 -0.174536 0.010979
-71.027588 48.984367 18.274111 177.719406 -31.887416 -3.384612 -0.503615 20.447941 2.449740 -0.108387 2.617870 0.300475 -0.171591 4.286871 0.489861 -0.473469 17.572555 1.968871 4.761737 14.993501 -2.017798 9.649122 -7.608220 -5.527088 -1.089594 -3.202343 -5.155245 6.825890 -9.070080 -12.585592 -39.886181 -49.270785 88.599241 1.958072 -0.043746 -15.462468 -0.102215 -3.057152 3.184502 -9.387296 -4.050255 12.827692 73.756327 -71.902091 -109.746830 4.416082 7.592283 8.329966 0.747490 -53.102231 -11.445962 -179.635634 82.366859 -168.461207 -25.808293 -2.860330 -2.418411 -0.144244 -10.785663 1.476798 -12.356585 -54.810299 17.295030 -72.854519 65.429033 -78.278778 30.709962 6.651141 16.446440 0.043353 -0.175092 0.011105
-71.031953 48.984294 18.273294 177.718717 -31.896900 -3.383291 -0.504368 20.451172 2.448319 -0.108285 2.607967 0.300584 -0.171097 4.296233 0.489859 -0.476661 17.564857 1.970184 4.762406 15.006675 -2.016422 9.629172 -7.601919 -5.493715 -1.101904 -3.198137 -5.143258 6.832167 -9.061554 -12.589803 -39.869287 -49.273110 88.591868 1.950164 -0.052655 -15.466995 -0.103049 -3.048664 3.184894 -9.381479 -4.038110 12.826507 73.760211 -71.899909 -109.756809 4.412467 7.589052 8.331929 0.759181 -53.090532 -11.454341 -179.631760 82.364822 -168.461522 -25.774889 -2.868366 -2.441258 -0.223436 -10.773353 1.516716 -12.349212 -54.800577 17.280423 -72.855036 65.428834 -78.274018 30.713850 6.648972 16.445159 0.038826 -0.173553 0.010931
-71.035611 48.984533 18.271752 177.726502 -31.910034 -3.391701 -0.508868 20.440933 2.452391 -0.109245 2.619711 0.300908 -0.170520 4.301379 0.490173 -0.478974 17.544755 1.974126 4.756942 15.026623 -2.006288 9.620144 -7.590040 -5.478549 -1.107977 -3.174852 -5.143120 6.831008 -9.061420 -12.589333 -39.860198 -49.271213 88.587894 1.949636 -0.060442 -15.460959 -0.103167 -3.034197 3.183127 -9.379731 -4.019846 12.826405 73.769771 -71.895557 -109.771108 4.408530 7.588064 8.330487 0.759869 -53.074306 -11.453036 -179.612008 82.360092 -168.451050 -25.729823 -2.870915 -2.449047 -0.145476 -10.769705 1.517094 -12.359040 -54.790958 17.276871 -72.862915 65.437922 -78.279027 30.711981 6.655021 16.449079 0.040241 -0.179555 0.006065
-71.039886 48.983711 18.271559 177.730783 -31.912555 -3.395608 -0.511506 20.436430 2.454249 -0.109664 2.616884 0.301771 -0.172079 4.291948 0.489625 -0.478198 17.545885 1.977999 4.748353 15.037138 -1.996525 9.624054 -7.579091 -5.482464 -1.115281 -3.158885 -5.144171 6.821810 -9.062702 -12.588102 -39.854901 -49.270274 88.590831 1.956340 -0.062582 -15.443727 -0.105277 -3.029202 3.181131 -9.377249 -4.003732 12.822566 73.772462 -71.895644 -109.779700 4.402268 7.585252 8.324013 0.759880 -53.071651 -11.451466 -179.513906 82.359031 -168.356176 -25.723761 -2.874826 -2.457838 -0.147821 -10.761959 1.532075 -12.366912 -54.793932 17.272369 -72.873064 65.447137 -78.285837 30.712931 6.660871 16.446381 0.039728 -0.184733 0.007881
-71.043870 48.982846 18.271306 177.732019 -31.915173 -3.399797 -0.510686 20.437002 2.458230 -0.110557 2.609815 0.303248 -0.170669 4.295507 0.488630 -0.476867 17.537357 1.984450 4.744155 15.044569 -1.988777 9.610950 -7.566747 -5.459079 -1.131815 -3.153701 -5.143014 6.813282 -9.058590 -12.589354 -39.843966 -49.271147 88.599067 1.961221 -0.059255 -15.435297 -0.108842 -3.027762 3.181821 -9.375535 -3.990678 12.815515 73.774925 -71.894442 -109.789098 4.401689 7.583206 8.328660 0.761715 -53.070621 -11.441060 -179.339394 82.358763 -168.184263 -25.747356 -2.873993 -2.457965 -0.151532 -10.755555 1.544690 -12.374983 -54.792664 17.277216 -72.875129 65.448949 -78.287866 30.710706 6.662998 16.443507 0.042771 -0.184880 0.011370
-71.047492 48.982084 18.270859 177.731335 -31.919133 -3.404633 -0.510002 20.433785 2.464954 -0.109431 2.607498 0.301852 -0.171490 4.295164 0.491825 -0.475619 17.540000 1.984113 4.742286 15.044268 -1.974751 9.601629 -7.557426 -5.440834 -1.143009 -3.154566 -5.138192 6.815000 -9.052859 -12.594692 -39.847361 -49.270516 88.607077 1.966692 -0.055768 -15.428579 -0.101939 -3.042307 3.192194 -9.383201 -3.971603 12.798818 73.774726 -71.893676 -109.792616 4.398770 7.575796 8.326321 0.767436 -53.066793 -11.437271 -179.201584 82.356069 -168.048733 -25.729971 -2.875250 -2.460865 -0.153466 -10.749534 1.554622 -12.381175 -54.788523 17.284073 -72.875184 65.449601 -78.288361 30.708611 6.661976 16.442612 0.043377 -0.183442 0.013790
-71.050772 48.981322 18.270453 177.732448 -31.922888 -3.411296 -0.510400 20.428579 2.470558 -0.106862 2.607279 0.302024 -0.172445 4.292140 0.493122 -0.473997 17.544241 1.985750 4.739222 15.042202 -1.962444 9.585514 -7.547810 -5.418270 -1.151314 -3.153079 -5.134813 6.812626 -9.048025 -12.598767 -39.843872 -49.270346 88.611489 1.971965 -0.062157 -15.426244 -0.100580 -3.047903 3.193911 -9.384390 -3.958573 12.792977 73.774450 -71.893844 -109.797944 4.398633 7.569168 8.329146 0.771147 -53.063098 -11.434491 -179.123340 82.351261 -167.974492 -25.702229 -2.873493 -2.459914 -0.145578 -10.747220 1.557727 -12.393508 -54.783637 17.292507 -72.872319 65.457815 -78.284413 30.701810 6.658412 16.437525 0.045888 -0.179663 0.016257
-71.054381 48.980877 18.269522 177.732997 -31.930548 -3.413653 -0.508476 20.427301 2.471491 -0.106655 2.609756 0.304285 -0.172582 4.288476 0.492380 -0.467069 17.530917 1.996145 4.733895 15.048649 -1.943042 9.567894 -7.535393 -5.386082 -1.168623 -3.141495 -5.127307 6.805645 -9.035173 -12.612260 -39.856399 -49.278301 88.633461 1.981488 -0.059562 -15.417409 -0.109553 -3.037802 3.188105 -9.378217 -3.946627 12.790385 73.767659 -71.892301 -109.804481 4.401670 7.557196 8.330518 0.785126 -53.056040 -11.435974 -179.055015 82.346010 -167.913930 -25.680586 -2.870312 -2.450242 -0.147155 -10.744097 1.560688 -12.398270 -54.776652 17.291924 -72.874687 65.464724 -78.289207 30.701884 6.654521 16.439268 0.045084 -0.179299 0.015599
